PathFileType	4	(X/Y/Z)	 s09c0102.trc
DataRate	CameraRate	NumFrames	NumMarkers	Units	OrigDataRate	OrigDataStartFrame	OrigNumFrames
200	200	7	50	mm	200	1001	2000
Frame#	Time	racr			lacr			c7			jug			rlel			rdr			llel			ldr			s2			lic			ric			lasi			rasi			rpsi			lpsi			rgt			lgt			rth1			rth2			rth3			rth4			rlfc			rmfc			rsh1			rsh2			rsh3			rsh4			rlmal			rmmal			rcal			rtoe			rmt5			lth1			lth2			lth4			lth3			llfc			lmfc			llmal			lmmal			lcal			lmt5			lsh1			lsh2			lsh3			lsh4			ltoe			SBIKE			LBIKE			RBIKE			
		X1	Y1	Z1	X2	Y2	Z2	X3	Y3	Z3	X4	Y4	Z4	X5	Y5	Z5	X6	Y6	Z6	X7	Y7	Z7	X8	Y8	Z8	X9	Y9	Z9	X10	Y10	Z10	X11	Y11	Z11	X12	Y12	Z12	X13	Y13	Z13	X14	Y14	Z14	X15	Y15	Z15	X16	Y16	Z16	X17	Y17	Z17	X18	Y18	Z18	X19	Y19	Z19	X20	Y20	Z20	X21	Y21	Z21	X22	Y22	Z22	X23	Y23	Z23	X24	Y24	Z24	X25	Y25	Z25	X26	Y26	Z26	X27	Y27	Z27	X28	Y28	Z28	X29	Y29	Z29	X30	Y30	Z30	X31	Y31	Z31	X32	Y32	Z32	X33	Y33	Z33	X34	Y34	Z34	X35	Y35	Z35	X36	Y36	Z36	X37	Y37	Z37	X38	Y38	Z38	X39	Y39	Z39	X40	Y40	Z40	X41	Y41	Z41	X42	Y42	Z42	X43	Y43	Z43	X44	Y44	Z44	X45	Y45	Z45	X46	Y46	Z46	X47	Y47	Z47	X48	Y48	Z48	X49	Y49	Z49	X50	Y50	Z50	
1001	5.0050	489.532560	1236.333778	-37.461602	586.338096	1203.216603	-321.582204	520.950717	1259.171194	-175.755556	471.282247	1127.842826	-187.624428	499.145864	1007.546236	63.176865	700.608746	880.687360	-25.659007	517.733065	1029.672906	-529.846050	695.958422	882.904115	-441.311455	33.975459	1135.838416	-288.461407	185.368552	1109.941583	-416.638054	157.526167	1147.870118	-126.890295	214.873880	1054.502101	-384.610448	202.058179	1096.959656	-137.831141	55.352056	1173.692736	-229.507932	72.320596	1165.638367	-338.713373	150.546630	1051.721583	-70.194163	127.836881	969.307804	-445.154203	273.538047	1000.733910	-82.369134	360.712986	993.751105	-94.062977	431.878263	942.472580	-89.224428	368.998089	1015.916845	-121.965701	513.585267	865.391724	-116.433203	499.253812	839.930338	-217.262641	446.886990	787.607413	-85.040682	416.496510	703.283629	-92.721373	349.619180	646.649166	-87.017976	438.101287	689.333158	-123.357389	291.559874	557.941103	-83.065295	289.866304	568.741405	-159.869799	204.516443	535.259977	-114.440055	464.018252	489.346230	-131.068860	384.226975	483.825208	-62.123646	191.967953	847.600566	-437.524389	250.452367	785.830841	-434.150505	284.388373	802.717146	-429.334936	271.452869	698.513286	-423.012834	300.033378	605.858247	-398.784763	317.515426	591.839052	-302.952567	130.932255	281.279416	-407.622211	154.979269	282.115217	-336.699880	59.737492	261.480521	-368.539053	207.795485	171.120685	-429.069795	255.344060	519.193579	-421.222698	236.986891	435.019615	-411.029783	177.802897	368.891543	-411.614815	260.103535	426.534927	-380.541420	299.282671	159.428527	-360.090509	-65.413084	852.880746	-239.601604	20.721874	84.893305	-441.894823	21.073356	84.111038	-43.826183	
1002	5.0100	490.671087	1235.598190	-37.726490	585.333188	1202.892188	-322.849538	521.176891	1258.925329	-176.805612	471.706301	1127.823277	-188.396385	499.237263	1007.151808	63.527112	700.271568	880.684899	-25.623117	515.556328	1028.004794	-529.584829	695.566777	882.694470	-441.038774	33.636369	1136.271940	-286.012964	183.940276	1110.489095	-415.001261	157.652832	1148.025379	-124.626227	213.888623	1054.964091	-383.288341	202.271753	1097.142576	-136.062455	55.340674	1173.811143	-227.130950	71.860659	1166.455609	-336.480403	150.156259	1049.931372	-68.543920	127.472864	970.274119	-443.964851	273.199173	996.713455	-81.649316	360.418408	989.801520	-92.517575	430.952196	937.720528	-87.968551	369.109947	1012.073612	-120.024825	512.229540	860.102043	-116.402123	497.683133	834.611097	-216.262122	447.543106	781.010208	-84.258005	418.772217	696.082817	-92.082734	353.023112	638.270170	-86.411430	440.424806	682.857581	-123.075384	296.986540	548.348689	-82.886864	295.097135	559.460127	-159.969111	210.364158	522.729778	-114.047891	471.435630	487.249756	-130.751906	392.132262	478.313588	-61.743192	193.290790	848.885933	-435.726074	252.727042	788.069266	-432.563856	286.398271	805.376367	-427.954553	275.162687	701.095323	-422.031884	304.532767	608.140950	-398.083215	321.602690	594.411216	-302.328853	125.707533	288.906800	-407.054461	149.988867	288.952659	-336.073812	54.079846	271.108466	-367.724995	199.277797	176.667077	-428.838633	257.336834	522.866618	-420.492498	236.451239	439.402632	-410.488528	175.197590	375.035898	-410.964792	259.115909	430.179103	-379.627034	290.615816	162.086794	-360.069546	-65.353346	852.901874	-239.470326	20.734513	84.929578	-441.884438	21.082313	84.104037	-43.820058	
1003	5.0150	492.058127	1234.806702	-38.241843	584.511312	1201.953272	-324.100700	521.418331	1258.830308	-177.825826	472.177214	1127.777216	-189.390767	499.454636	1006.734290	63.527410	700.004629	880.541496	-25.600186	513.075603	1025.983152	-529.441104	694.485595	882.395509	-439.912355	33.285124	1136.593626	-283.508514	182.367812	1110.949296	-413.269687	157.915374	1147.680587	-122.532115	212.759488	1055.363794	-381.825171	202.609031	1097.263351	-134.141346	55.334688	1173.776387	-224.665943	71.047260	1166.398923	-334.083227	149.636497	1047.743202	-67.031470	127.024397	970.826010	-442.308405	273.098650	992.974150	-79.648321	360.239456	984.811360	-90.737150	430.092148	932.034076	-86.854434	369.388080	1007.475533	-117.947596	511.483480	854.080221	-115.681455	496.334357	828.861106	-215.612297	448.140341	773.611219	-83.188025	421.065219	687.896802	-91.657686	356.370522	629.004272	-85.885184	442.445540	675.666044	-122.901298	302.339230	538.200426	-82.683722	299.878185	549.572940	-159.720758	216.184147	509.578899	-113.756590	478.493313	484.433418	-130.267952	399.544815	472.147880	-61.369828	195.035033	850.289781	-434.116531	255.501361	790.534475	-430.745761	288.751004	808.359107	-426.080506	279.446608	704.005364	-420.778107	309.457091	610.728853	-397.318268	325.736541	597.546761	-301.073216	120.781192	296.902844	-406.437814	145.385217	296.252657	-335.359610	48.837378	281.202178	-366.798034	191.042177	182.798981	-428.583322	259.417993	526.803280	-419.909081	236.069856	444.054028	-409.934095	172.884906	381.505069	-410.346202	258.344180	433.844489	-378.567350	282.233216	165.408028	-360.232996	-65.286590	852.939365	-239.329233	20.717863	84.820212	-442.010399	21.087711	84.103557	-43.796384	
1004	5.0200	493.571125	1233.998257	-39.005758	583.163874	1201.463532	-325.908538	521.807969	1258.622767	-179.978403	472.695469	1127.704249	-190.612805	499.575256	1006.443620	63.617153	699.400211	881.153065	-25.188527	510.449500	1023.690538	-529.334478	693.866302	882.256462	-439.616474	32.767669	1136.622940	-280.824507	180.766927	1111.371271	-411.513808	158.319639	1147.272196	-120.522264	211.579403	1055.829468	-380.413529	203.069523	1097.010428	-132.370249	55.184402	1173.265680	-221.993803	70.352245	1166.869467	-331.585875	149.259888	1045.179464	-65.444211	126.787509	971.377851	-440.709020	273.093810	988.491155	-77.640599	360.096154	979.537746	-88.698024	429.233032	925.445801	-85.661752	369.811022	1002.170268	-115.716765	510.246548	847.507625	-115.320438	494.921566	822.242251	-214.705532	448.562690	765.444659	-82.233257	423.017220	679.439699	-91.289708	359.546248	619.160157	-85.486516	444.297319	667.777982	-122.825484	307.602398	527.637070	-82.133082	304.750988	539.240574	-159.674609	222.084620	495.972463	-113.594915	485.304287	480.637983	-130.310082	406.750394	465.246754	-60.998839	197.151670	851.917753	-432.620290	258.659254	793.285833	-428.823941	291.472560	811.539092	-423.731031	283.929211	706.980121	-419.468628	314.567677	613.526195	-396.593477	329.717119	600.774035	-300.282288	116.127816	305.394859	-405.732359	141.055905	303.860318	-334.726539	43.953434	291.589079	-365.854181	183.148326	189.495172	-428.321030	261.728373	530.930470	-419.255692	235.851649	448.970435	-409.424937	170.696589	388.354046	-409.642977	257.665523	438.110740	-377.925489	274.100733	169.372330	-360.341182	-65.216741	852.957508	-239.176706	20.737154	84.844233	-441.962451	21.098766	84.100141	-43.783891	
1005	5.0250	495.301119	1233.184009	-39.984040	581.824650	1201.062226	-328.338054	522.170991	1258.240918	-179.662890	473.261553	1127.603983	-192.067731	499.728151	1006.178782	63.644973	698.985159	880.864452	-24.970092	507.732550	1021.178577	-529.379620	693.207703	882.091199	-439.411183	30.783496	1137.452854	-276.717558	179.013093	1111.721965	-409.713290	158.864068	1146.482115	-118.444980	210.372990	1056.348228	-378.746704	203.620859	1096.554288	-130.546564	55.214042	1172.833951	-219.304318	69.541827	1167.143469	-329.063541	148.948573	1042.009370	-63.992518	126.596278	971.793306	-439.055849	273.130191	983.535822	-75.799845	359.954916	973.701611	-86.500292	428.365686	918.309036	-84.951348	369.976883	996.696437	-113.318747	508.723109	840.067209	-115.062796	493.533735	814.993830	-213.894036	448.833514	756.626648	-81.543757	424.830706	670.401729	-91.119071	362.606533	608.816862	-85.281858	446.093280	659.475061	-122.827219	312.925216	516.708283	-81.762631	309.402658	528.356993	-159.471842	227.944072	482.163174	-113.500445	491.410267	476.007928	-130.567793	413.615478	457.755372	-60.678708	199.541222	853.702868	-431.283815	262.024228	796.072620	-426.876662	294.392064	814.890808	-421.157088	288.780623	710.111108	-417.656583	319.806638	616.386303	-395.887675	333.520338	603.843308	-299.569873	111.798444	314.188150	-405.090064	136.828052	311.969679	-333.968768	39.388066	302.154987	-364.969825	175.706578	196.670578	-428.106325	263.975904	535.259373	-418.722585	235.668958	454.135336	-408.799665	168.676548	395.499463	-408.994240	257.053491	442.900176	-377.552095	266.313406	173.965548	-360.357955	-65.125622	852.996330	-239.023846	20.731872	84.882234	-441.955873	21.104705	84.088313	-43.766001	
1006	5.0300	497.230118	1232.428226	-41.224332	580.444750	1200.659751	-331.417263	522.626634	1257.587802	-183.997287	473.875950	1127.476027	-193.760778	499.871101	1005.976064	63.699029	698.771881	880.805094	-24.783391	504.906058	1018.444422	-529.473453	692.512715	881.906903	-439.318908	31.341063	1136.617252	-274.975207	177.298118	1112.074468	-407.888932	159.512524	1145.629176	-116.055613	209.050824	1056.636252	-377.251199	204.278449	1095.845799	-128.699624	55.166864	1172.093010	-216.437835	68.352164	1166.604619	-326.249945	148.646786	1038.704031	-62.511504	126.556397	972.276108	-437.340056	273.325608	978.467684	-73.775889	359.758509	967.615554	-84.174329	426.932037	910.639525	-83.493073	370.325692	991.999135	-110.062782	506.920024	832.314889	-114.532125	492.066626	807.432457	-213.118603	448.802949	747.660398	-80.984506	426.416941	660.982473	-91.040997	365.562259	598.223423	-85.180765	447.692257	650.877542	-123.027219	317.840830	505.712070	-81.121862	314.038340	517.238604	-159.389632	233.813754	468.254104	-113.569164	497.729032	470.368948	-130.099272	420.205244	449.675386	-60.470310	202.166910	855.651651	-429.899935	265.582494	799.024560	-424.787567	297.400051	818.318355	-418.348292	293.612960	713.416253	-415.927286	325.292230	619.336476	-395.699058	337.221915	606.975786	-298.921370	107.472366	323.220828	-404.708666	132.910492	320.508100	-333.371518	35.154501	312.982936	-364.117451	168.605098	204.378482	-427.810842	266.264007	539.850458	-418.268986	235.552632	459.531775	-408.314148	166.814206	402.947245	-408.365258	256.571309	447.652242	-376.975556	258.943440	179.392953	-360.504101	-65.035272	853.032890	-238.894126	20.754019	84.906948	-441.958685	21.115885	84.081339	-43.743814	
1007	5.0350	499.244272	1231.744046	-42.693921	579.020097	1200.319723	-334.950950	523.422093	1257.822383	-186.501209	474.539145	1127.319986	-195.697178	500.092253	1005.843363	63.761661	698.678103	880.558597	-24.737755	502.106395	1015.542217	-529.634988	691.791030	881.721797	-439.129486	30.856932	1135.885883	-272.013216	175.443787	1112.150448	-406.064240	160.001144	1144.427232	-113.798785	207.788596	1056.858454	-375.619726	205.054720	1094.933523	-126.689328	55.172522	1171.179360	-213.535318	67.384319	1166.663351	-323.403286	148.401254	1035.083710	-61.094838	127.046794	972.872968	-436.671414	273.580541	973.299083	-71.778084	359.418603	960.672932	-82.423559	426.067273	902.175641	-83.717204	370.749906	985.457329	-107.561118	504.819721	824.322360	-113.538852	490.275927	799.076168	-211.561364	448.484905	738.533100	-80.732742	427.876731	651.440535	-91.077942	368.429876	587.341458	-85.158616	449.305223	641.883466	-123.067265	323.123443	494.221886	-81.227347	318.641045	505.940865	-159.521111	239.472869	454.506209	-113.751489	503.428181	463.979135	-129.895139	426.182073	441.258942	-60.167734	204.937836	857.679090	-428.800305	269.163452	802.206147	-422.738437	300.504591	821.848485	-415.261917	298.565380	716.822893	-414.213932	330.295119	622.765587	-395.145386	340.813951	610.141869	-298.202047	103.691852	332.584077	-404.249583	129.386747	329.089019	-332.916982	31.204910	324.005528	-363.454432	162.071983	212.504449	-427.640156	268.512277	544.614424	-417.849207	235.551593	465.333150	-407.908533	165.185580	410.581298	-407.854149	256.193146	452.696241	-376.492921	252.035338	185.397261	-360.724659	-64.959937	853.046728	-238.772577	20.749965	84.919806	-441.951657	21.117449	84.060178	-43.749786	
